<svg xmlns="http://www.w3.org/2000/svg" width="100mm" height="140mm" viewBox="0 0 1181 1654">
<title>Wasabi.26 — QR-код меню</title>
<desc>Сканируйте QR-код, чтобы открыть меню Wasabi.26.</desc>
<rect width="1181" height="1654" fill="#f5f2e9"/>
<rect x="38" y="38" width="1105" height="1578" rx="48" fill="#fffdf8" stroke="#e4e0d5" stroke-width="3"/>
<path d="M86 38H1095a48 48 0 0 1 48 48v392H38V86a48 48 0 0 1 48-48Z" fill="#293b2d"/>
<text x="590.5" y="178" text-anchor="middle" fill="#fffdf8" font-family="Arial,sans-serif" font-size="82" font-weight="700">WASABI.26</text>
<rect x="543.5" y="215" width="94" height="11" rx="6" fill="#d5e38f"/>
<text x="590.5" y="300" text-anchor="middle" fill="#e5eccd" font-family="Arial,sans-serif" font-size="35">МЕНЮ И ЗАКАЗ</text>
<text x="590.5" y="375" text-anchor="middle" fill="#fffdf8" font-family="Arial,sans-serif" font-size="35">Сканируйте камерой</text>
<rect x="165.5" y="530" width="850" height="850" rx="27" fill="#fffdf8"/>
<path fill="#252a22" d="M248.43,612.93h20.73v20.73h-20.73zM269.16,612.93h20.73v20.73h-20.73zM289.89,612.93h20.73v20.73h-20.73zM310.62,612.93h20.73v20.73h-20.73zM331.35,612.93h20.73v20.73h-20.73zM352.09,612.93h20.73v20.73h-20.73zM372.82,612.93h20.73v20.73h-20.73zM414.28,612.93h20.73v20.73h-20.73zM497.21,612.93h20.73v20.73h-20.73zM517.94,612.93h20.73v20.73h-20.73zM621.60,612.93h20.73v20.73h-20.73zM663.06,612.93h20.73v20.73h-20.73zM704.52,612.93h20.73v20.73h-20.73zM725.26,612.93h20.73v20.73h-20.73zM745.99,612.93h20.73v20.73h-20.73zM787.45,612.93h20.73v20.73h-20.73zM808.18,612.93h20.73v20.73h-20.73zM828.91,612.93h20.73v20.73h-20.73zM849.65,612.93h20.73v20.73h-20.73zM870.38,612.93h20.73v20.73h-20.73zM891.11,612.93h20.73v20.73h-20.73zM911.84,612.93h20.73v20.73h-20.73zM248.43,633.66h20.73v20.73h-20.73zM372.82,633.66h20.73v20.73h-20.73zM476.48,633.66h20.73v20.73h-20.73zM497.21,633.66h20.73v20.73h-20.73zM538.67,633.66h20.73v20.73h-20.73zM559.40,633.66h20.73v20.73h-20.73zM621.60,633.66h20.73v20.73h-20.73zM642.33,633.66h20.73v20.73h-20.73zM725.26,633.66h20.73v20.73h-20.73zM787.45,633.66h20.73v20.73h-20.73zM911.84,633.66h20.73v20.73h-20.73zM248.43,654.39h20.73v20.73h-20.73zM289.89,654.39h20.73v20.73h-20.73zM310.62,654.39h20.73v20.73h-20.73zM331.35,654.39h20.73v20.73h-20.73zM372.82,654.39h20.73v20.73h-20.73zM435.01,654.39h20.73v20.73h-20.73zM455.74,654.39h20.73v20.73h-20.73zM517.94,654.39h20.73v20.73h-20.73zM580.13,654.39h20.73v20.73h-20.73zM704.52,654.39h20.73v20.73h-20.73zM725.26,654.39h20.73v20.73h-20.73zM745.99,654.39h20.73v20.73h-20.73zM787.45,654.39h20.73v20.73h-20.73zM828.91,654.39h20.73v20.73h-20.73zM849.65,654.39h20.73v20.73h-20.73zM870.38,654.39h20.73v20.73h-20.73zM911.84,654.39h20.73v20.73h-20.73zM248.43,675.12h20.73v20.73h-20.73zM289.89,675.12h20.73v20.73h-20.73zM310.62,675.12h20.73v20.73h-20.73zM331.35,675.12h20.73v20.73h-20.73zM372.82,675.12h20.73v20.73h-20.73zM414.28,675.12h20.73v20.73h-20.73zM435.01,675.12h20.73v20.73h-20.73zM476.48,675.12h20.73v20.73h-20.73zM517.94,675.12h20.73v20.73h-20.73zM538.67,675.12h20.73v20.73h-20.73zM559.40,675.12h20.73v20.73h-20.73zM642.33,675.12h20.73v20.73h-20.73zM745.99,675.12h20.73v20.73h-20.73zM787.45,675.12h20.73v20.73h-20.73zM828.91,675.12h20.73v20.73h-20.73zM849.65,675.12h20.73v20.73h-20.73zM870.38,675.12h20.73v20.73h-20.73zM911.84,675.12h20.73v20.73h-20.73zM248.43,695.85h20.73v20.73h-20.73zM289.89,695.85h20.73v20.73h-20.73zM310.62,695.85h20.73v20.73h-20.73zM331.35,695.85h20.73v20.73h-20.73zM372.82,695.85h20.73v20.73h-20.73zM497.21,695.85h20.73v20.73h-20.73zM517.94,695.85h20.73v20.73h-20.73zM538.67,695.85h20.73v20.73h-20.73zM559.40,695.85h20.73v20.73h-20.73zM683.79,695.85h20.73v20.73h-20.73zM745.99,695.85h20.73v20.73h-20.73zM787.45,695.85h20.73v20.73h-20.73zM828.91,695.85h20.73v20.73h-20.73zM849.65,695.85h20.73v20.73h-20.73zM870.38,695.85h20.73v20.73h-20.73zM911.84,695.85h20.73v20.73h-20.73zM248.43,716.59h20.73v20.73h-20.73zM372.82,716.59h20.73v20.73h-20.73zM455.74,716.59h20.73v20.73h-20.73zM517.94,716.59h20.73v20.73h-20.73zM538.67,716.59h20.73v20.73h-20.73zM600.87,716.59h20.73v20.73h-20.73zM621.60,716.59h20.73v20.73h-20.73zM642.33,716.59h20.73v20.73h-20.73zM663.06,716.59h20.73v20.73h-20.73zM683.79,716.59h20.73v20.73h-20.73zM725.26,716.59h20.73v20.73h-20.73zM745.99,716.59h20.73v20.73h-20.73zM787.45,716.59h20.73v20.73h-20.73zM911.84,716.59h20.73v20.73h-20.73zM248.43,737.32h20.73v20.73h-20.73zM269.16,737.32h20.73v20.73h-20.73zM289.89,737.32h20.73v20.73h-20.73zM310.62,737.32h20.73v20.73h-20.73zM331.35,737.32h20.73v20.73h-20.73zM352.09,737.32h20.73v20.73h-20.73zM372.82,737.32h20.73v20.73h-20.73zM414.28,737.32h20.73v20.73h-20.73zM455.74,737.32h20.73v20.73h-20.73zM497.21,737.32h20.73v20.73h-20.73zM538.67,737.32h20.73v20.73h-20.73zM580.13,737.32h20.73v20.73h-20.73zM621.60,737.32h20.73v20.73h-20.73zM663.06,737.32h20.73v20.73h-20.73zM704.52,737.32h20.73v20.73h-20.73zM745.99,737.32h20.73v20.73h-20.73zM787.45,737.32h20.73v20.73h-20.73zM808.18,737.32h20.73v20.73h-20.73zM828.91,737.32h20.73v20.73h-20.73zM849.65,737.32h20.73v20.73h-20.73zM870.38,737.32h20.73v20.73h-20.73zM891.11,737.32h20.73v20.73h-20.73zM911.84,737.32h20.73v20.73h-20.73zM435.01,758.05h20.73v20.73h-20.73zM455.74,758.05h20.73v20.73h-20.73zM497.21,758.05h20.73v20.73h-20.73zM580.13,758.05h20.73v20.73h-20.73zM600.87,758.05h20.73v20.73h-20.73zM621.60,758.05h20.73v20.73h-20.73zM642.33,758.05h20.73v20.73h-20.73zM663.06,758.05h20.73v20.73h-20.73zM683.79,758.05h20.73v20.73h-20.73zM725.26,758.05h20.73v20.73h-20.73zM289.89,778.78h20.73v20.73h-20.73zM331.35,778.78h20.73v20.73h-20.73zM352.09,778.78h20.73v20.73h-20.73zM372.82,778.78h20.73v20.73h-20.73zM414.28,778.78h20.73v20.73h-20.73zM435.01,778.78h20.73v20.73h-20.73zM497.21,778.78h20.73v20.73h-20.73zM517.94,778.78h20.73v20.73h-20.73zM580.13,778.78h20.73v20.73h-20.73zM600.87,778.78h20.73v20.73h-20.73zM642.33,778.78h20.73v20.73h-20.73zM683.79,778.78h20.73v20.73h-20.73zM745.99,778.78h20.73v20.73h-20.73zM766.72,778.78h20.73v20.73h-20.73zM849.65,778.78h20.73v20.73h-20.73zM911.84,778.78h20.73v20.73h-20.73zM248.43,799.51h20.73v20.73h-20.73zM310.62,799.51h20.73v20.73h-20.73zM331.35,799.51h20.73v20.73h-20.73zM393.55,799.51h20.73v20.73h-20.73zM497.21,799.51h20.73v20.73h-20.73zM517.94,799.51h20.73v20.73h-20.73zM663.06,799.51h20.73v20.73h-20.73zM704.52,799.51h20.73v20.73h-20.73zM745.99,799.51h20.73v20.73h-20.73zM787.45,799.51h20.73v20.73h-20.73zM911.84,799.51h20.73v20.73h-20.73zM248.43,820.24h20.73v20.73h-20.73zM289.89,820.24h20.73v20.73h-20.73zM310.62,820.24h20.73v20.73h-20.73zM331.35,820.24h20.73v20.73h-20.73zM372.82,820.24h20.73v20.73h-20.73zM393.55,820.24h20.73v20.73h-20.73zM455.74,820.24h20.73v20.73h-20.73zM517.94,820.24h20.73v20.73h-20.73zM580.13,820.24h20.73v20.73h-20.73zM600.87,820.24h20.73v20.73h-20.73zM621.60,820.24h20.73v20.73h-20.73zM642.33,820.24h20.73v20.73h-20.73zM663.06,820.24h20.73v20.73h-20.73zM683.79,820.24h20.73v20.73h-20.73zM745.99,820.24h20.73v20.73h-20.73zM787.45,820.24h20.73v20.73h-20.73zM828.91,820.24h20.73v20.73h-20.73zM870.38,820.24h20.73v20.73h-20.73zM891.11,820.24h20.73v20.73h-20.73zM911.84,820.24h20.73v20.73h-20.73zM248.43,840.98h20.73v20.73h-20.73zM269.16,840.98h20.73v20.73h-20.73zM310.62,840.98h20.73v20.73h-20.73zM393.55,840.98h20.73v20.73h-20.73zM414.28,840.98h20.73v20.73h-20.73zM435.01,840.98h20.73v20.73h-20.73zM476.48,840.98h20.73v20.73h-20.73zM559.40,840.98h20.73v20.73h-20.73zM580.13,840.98h20.73v20.73h-20.73zM642.33,840.98h20.73v20.73h-20.73zM663.06,840.98h20.73v20.73h-20.73zM725.26,840.98h20.73v20.73h-20.73zM745.99,840.98h20.73v20.73h-20.73zM849.65,840.98h20.73v20.73h-20.73zM352.09,861.71h20.73v20.73h-20.73zM372.82,861.71h20.73v20.73h-20.73zM435.01,861.71h20.73v20.73h-20.73zM497.21,861.71h20.73v20.73h-20.73zM517.94,861.71h20.73v20.73h-20.73zM538.67,861.71h20.73v20.73h-20.73zM580.13,861.71h20.73v20.73h-20.73zM600.87,861.71h20.73v20.73h-20.73zM642.33,861.71h20.73v20.73h-20.73zM663.06,861.71h20.73v20.73h-20.73zM766.72,861.71h20.73v20.73h-20.73zM787.45,861.71h20.73v20.73h-20.73zM849.65,861.71h20.73v20.73h-20.73zM248.43,882.44h20.73v20.73h-20.73zM331.35,882.44h20.73v20.73h-20.73zM352.09,882.44h20.73v20.73h-20.73zM497.21,882.44h20.73v20.73h-20.73zM538.67,882.44h20.73v20.73h-20.73zM621.60,882.44h20.73v20.73h-20.73zM642.33,882.44h20.73v20.73h-20.73zM766.72,882.44h20.73v20.73h-20.73zM787.45,882.44h20.73v20.73h-20.73zM808.18,882.44h20.73v20.73h-20.73zM870.38,882.44h20.73v20.73h-20.73zM891.11,882.44h20.73v20.73h-20.73zM911.84,882.44h20.73v20.73h-20.73zM352.09,903.17h20.73v20.73h-20.73zM372.82,903.17h20.73v20.73h-20.73zM455.74,903.17h20.73v20.73h-20.73zM559.40,903.17h20.73v20.73h-20.73zM580.13,903.17h20.73v20.73h-20.73zM642.33,903.17h20.73v20.73h-20.73zM663.06,903.17h20.73v20.73h-20.73zM683.79,903.17h20.73v20.73h-20.73zM766.72,903.17h20.73v20.73h-20.73zM787.45,903.17h20.73v20.73h-20.73zM808.18,903.17h20.73v20.73h-20.73zM891.11,903.17h20.73v20.73h-20.73zM911.84,903.17h20.73v20.73h-20.73zM269.16,923.90h20.73v20.73h-20.73zM310.62,923.90h20.73v20.73h-20.73zM331.35,923.90h20.73v20.73h-20.73zM352.09,923.90h20.73v20.73h-20.73zM393.55,923.90h20.73v20.73h-20.73zM414.28,923.90h20.73v20.73h-20.73zM455.74,923.90h20.73v20.73h-20.73zM476.48,923.90h20.73v20.73h-20.73zM497.21,923.90h20.73v20.73h-20.73zM517.94,923.90h20.73v20.73h-20.73zM538.67,923.90h20.73v20.73h-20.73zM600.87,923.90h20.73v20.73h-20.73zM621.60,923.90h20.73v20.73h-20.73zM642.33,923.90h20.73v20.73h-20.73zM663.06,923.90h20.73v20.73h-20.73zM683.79,923.90h20.73v20.73h-20.73zM704.52,923.90h20.73v20.73h-20.73zM725.26,923.90h20.73v20.73h-20.73zM787.45,923.90h20.73v20.73h-20.73zM828.91,923.90h20.73v20.73h-20.73zM891.11,923.90h20.73v20.73h-20.73zM911.84,923.90h20.73v20.73h-20.73zM310.62,944.63h20.73v20.73h-20.73zM331.35,944.63h20.73v20.73h-20.73zM352.09,944.63h20.73v20.73h-20.73zM372.82,944.63h20.73v20.73h-20.73zM393.55,944.63h20.73v20.73h-20.73zM414.28,944.63h20.73v20.73h-20.73zM435.01,944.63h20.73v20.73h-20.73zM476.48,944.63h20.73v20.73h-20.73zM497.21,944.63h20.73v20.73h-20.73zM517.94,944.63h20.73v20.73h-20.73zM538.67,944.63h20.73v20.73h-20.73zM621.60,944.63h20.73v20.73h-20.73zM642.33,944.63h20.73v20.73h-20.73zM683.79,944.63h20.73v20.73h-20.73zM704.52,944.63h20.73v20.73h-20.73zM766.72,944.63h20.73v20.73h-20.73zM787.45,944.63h20.73v20.73h-20.73zM891.11,944.63h20.73v20.73h-20.73zM331.35,965.37h20.73v20.73h-20.73zM393.55,965.37h20.73v20.73h-20.73zM435.01,965.37h20.73v20.73h-20.73zM455.74,965.37h20.73v20.73h-20.73zM517.94,965.37h20.73v20.73h-20.73zM559.40,965.37h20.73v20.73h-20.73zM600.87,965.37h20.73v20.73h-20.73zM642.33,965.37h20.73v20.73h-20.73zM663.06,965.37h20.73v20.73h-20.73zM683.79,965.37h20.73v20.73h-20.73zM766.72,965.37h20.73v20.73h-20.73zM787.45,965.37h20.73v20.73h-20.73zM849.65,965.37h20.73v20.73h-20.73zM870.38,965.37h20.73v20.73h-20.73zM891.11,965.37h20.73v20.73h-20.73zM911.84,965.37h20.73v20.73h-20.73zM269.16,986.10h20.73v20.73h-20.73zM289.89,986.10h20.73v20.73h-20.73zM310.62,986.10h20.73v20.73h-20.73zM331.35,986.10h20.73v20.73h-20.73zM372.82,986.10h20.73v20.73h-20.73zM393.55,986.10h20.73v20.73h-20.73zM414.28,986.10h20.73v20.73h-20.73zM476.48,986.10h20.73v20.73h-20.73zM497.21,986.10h20.73v20.73h-20.73zM517.94,986.10h20.73v20.73h-20.73zM538.67,986.10h20.73v20.73h-20.73zM559.40,986.10h20.73v20.73h-20.73zM580.13,986.10h20.73v20.73h-20.73zM600.87,986.10h20.73v20.73h-20.73zM621.60,986.10h20.73v20.73h-20.73zM663.06,986.10h20.73v20.73h-20.73zM683.79,986.10h20.73v20.73h-20.73zM704.52,986.10h20.73v20.73h-20.73zM766.72,986.10h20.73v20.73h-20.73zM870.38,986.10h20.73v20.73h-20.73zM911.84,986.10h20.73v20.73h-20.73zM289.89,1006.83h20.73v20.73h-20.73zM393.55,1006.83h20.73v20.73h-20.73zM414.28,1006.83h20.73v20.73h-20.73zM455.74,1006.83h20.73v20.73h-20.73zM517.94,1006.83h20.73v20.73h-20.73zM559.40,1006.83h20.73v20.73h-20.73zM621.60,1006.83h20.73v20.73h-20.73zM683.79,1006.83h20.73v20.73h-20.73zM787.45,1006.83h20.73v20.73h-20.73zM828.91,1006.83h20.73v20.73h-20.73zM891.11,1006.83h20.73v20.73h-20.73zM911.84,1006.83h20.73v20.73h-20.73zM248.43,1027.56h20.73v20.73h-20.73zM289.89,1027.56h20.73v20.73h-20.73zM310.62,1027.56h20.73v20.73h-20.73zM372.82,1027.56h20.73v20.73h-20.73zM393.55,1027.56h20.73v20.73h-20.73zM435.01,1027.56h20.73v20.73h-20.73zM476.48,1027.56h20.73v20.73h-20.73zM517.94,1027.56h20.73v20.73h-20.73zM559.40,1027.56h20.73v20.73h-20.73zM580.13,1027.56h20.73v20.73h-20.73zM621.60,1027.56h20.73v20.73h-20.73zM683.79,1027.56h20.73v20.73h-20.73zM704.52,1027.56h20.73v20.73h-20.73zM745.99,1027.56h20.73v20.73h-20.73zM787.45,1027.56h20.73v20.73h-20.73zM849.65,1027.56h20.73v20.73h-20.73zM911.84,1027.56h20.73v20.73h-20.73zM331.35,1048.29h20.73v20.73h-20.73zM352.09,1048.29h20.73v20.73h-20.73zM414.28,1048.29h20.73v20.73h-20.73zM435.01,1048.29h20.73v20.73h-20.73zM455.74,1048.29h20.73v20.73h-20.73zM476.48,1048.29h20.73v20.73h-20.73zM497.21,1048.29h20.73v20.73h-20.73zM517.94,1048.29h20.73v20.73h-20.73zM538.67,1048.29h20.73v20.73h-20.73zM621.60,1048.29h20.73v20.73h-20.73zM683.79,1048.29h20.73v20.73h-20.73zM704.52,1048.29h20.73v20.73h-20.73zM725.26,1048.29h20.73v20.73h-20.73zM745.99,1048.29h20.73v20.73h-20.73zM766.72,1048.29h20.73v20.73h-20.73zM849.65,1048.29h20.73v20.73h-20.73zM911.84,1048.29h20.73v20.73h-20.73zM248.43,1069.02h20.73v20.73h-20.73zM289.89,1069.02h20.73v20.73h-20.73zM352.09,1069.02h20.73v20.73h-20.73zM372.82,1069.02h20.73v20.73h-20.73zM393.55,1069.02h20.73v20.73h-20.73zM414.28,1069.02h20.73v20.73h-20.73zM435.01,1069.02h20.73v20.73h-20.73zM455.74,1069.02h20.73v20.73h-20.73zM476.48,1069.02h20.73v20.73h-20.73zM538.67,1069.02h20.73v20.73h-20.73zM559.40,1069.02h20.73v20.73h-20.73zM580.13,1069.02h20.73v20.73h-20.73zM600.87,1069.02h20.73v20.73h-20.73zM621.60,1069.02h20.73v20.73h-20.73zM642.33,1069.02h20.73v20.73h-20.73zM663.06,1069.02h20.73v20.73h-20.73zM725.26,1069.02h20.73v20.73h-20.73zM745.99,1069.02h20.73v20.73h-20.73zM787.45,1069.02h20.73v20.73h-20.73zM828.91,1069.02h20.73v20.73h-20.73zM849.65,1069.02h20.73v20.73h-20.73zM911.84,1069.02h20.73v20.73h-20.73zM269.16,1089.76h20.73v20.73h-20.73zM352.09,1089.76h20.73v20.73h-20.73zM414.28,1089.76h20.73v20.73h-20.73zM497.21,1089.76h20.73v20.73h-20.73zM517.94,1089.76h20.73v20.73h-20.73zM559.40,1089.76h20.73v20.73h-20.73zM621.60,1089.76h20.73v20.73h-20.73zM642.33,1089.76h20.73v20.73h-20.73zM663.06,1089.76h20.73v20.73h-20.73zM683.79,1089.76h20.73v20.73h-20.73zM704.52,1089.76h20.73v20.73h-20.73zM745.99,1089.76h20.73v20.73h-20.73zM766.72,1089.76h20.73v20.73h-20.73zM828.91,1089.76h20.73v20.73h-20.73zM911.84,1089.76h20.73v20.73h-20.73zM248.43,1110.49h20.73v20.73h-20.73zM310.62,1110.49h20.73v20.73h-20.73zM331.35,1110.49h20.73v20.73h-20.73zM352.09,1110.49h20.73v20.73h-20.73zM372.82,1110.49h20.73v20.73h-20.73zM435.01,1110.49h20.73v20.73h-20.73zM455.74,1110.49h20.73v20.73h-20.73zM497.21,1110.49h20.73v20.73h-20.73zM517.94,1110.49h20.73v20.73h-20.73zM559.40,1110.49h20.73v20.73h-20.73zM663.06,1110.49h20.73v20.73h-20.73zM683.79,1110.49h20.73v20.73h-20.73zM725.26,1110.49h20.73v20.73h-20.73zM745.99,1110.49h20.73v20.73h-20.73zM766.72,1110.49h20.73v20.73h-20.73zM787.45,1110.49h20.73v20.73h-20.73zM808.18,1110.49h20.73v20.73h-20.73zM828.91,1110.49h20.73v20.73h-20.73zM911.84,1110.49h20.73v20.73h-20.73zM414.28,1131.22h20.73v20.73h-20.73zM517.94,1131.22h20.73v20.73h-20.73zM559.40,1131.22h20.73v20.73h-20.73zM580.13,1131.22h20.73v20.73h-20.73zM600.87,1131.22h20.73v20.73h-20.73zM621.60,1131.22h20.73v20.73h-20.73zM683.79,1131.22h20.73v20.73h-20.73zM745.99,1131.22h20.73v20.73h-20.73zM828.91,1131.22h20.73v20.73h-20.73zM891.11,1131.22h20.73v20.73h-20.73zM911.84,1131.22h20.73v20.73h-20.73zM248.43,1151.95h20.73v20.73h-20.73zM269.16,1151.95h20.73v20.73h-20.73zM289.89,1151.95h20.73v20.73h-20.73zM310.62,1151.95h20.73v20.73h-20.73zM331.35,1151.95h20.73v20.73h-20.73zM352.09,1151.95h20.73v20.73h-20.73zM372.82,1151.95h20.73v20.73h-20.73zM455.74,1151.95h20.73v20.73h-20.73zM517.94,1151.95h20.73v20.73h-20.73zM538.67,1151.95h20.73v20.73h-20.73zM559.40,1151.95h20.73v20.73h-20.73zM580.13,1151.95h20.73v20.73h-20.73zM600.87,1151.95h20.73v20.73h-20.73zM642.33,1151.95h20.73v20.73h-20.73zM663.06,1151.95h20.73v20.73h-20.73zM704.52,1151.95h20.73v20.73h-20.73zM725.26,1151.95h20.73v20.73h-20.73zM745.99,1151.95h20.73v20.73h-20.73zM787.45,1151.95h20.73v20.73h-20.73zM828.91,1151.95h20.73v20.73h-20.73zM870.38,1151.95h20.73v20.73h-20.73zM891.11,1151.95h20.73v20.73h-20.73zM911.84,1151.95h20.73v20.73h-20.73zM248.43,1172.68h20.73v20.73h-20.73zM372.82,1172.68h20.73v20.73h-20.73zM414.28,1172.68h20.73v20.73h-20.73zM455.74,1172.68h20.73v20.73h-20.73zM497.21,1172.68h20.73v20.73h-20.73zM580.13,1172.68h20.73v20.73h-20.73zM600.87,1172.68h20.73v20.73h-20.73zM621.60,1172.68h20.73v20.73h-20.73zM683.79,1172.68h20.73v20.73h-20.73zM704.52,1172.68h20.73v20.73h-20.73zM745.99,1172.68h20.73v20.73h-20.73zM828.91,1172.68h20.73v20.73h-20.73zM849.65,1172.68h20.73v20.73h-20.73zM911.84,1172.68h20.73v20.73h-20.73zM248.43,1193.41h20.73v20.73h-20.73zM289.89,1193.41h20.73v20.73h-20.73zM310.62,1193.41h20.73v20.73h-20.73zM331.35,1193.41h20.73v20.73h-20.73zM372.82,1193.41h20.73v20.73h-20.73zM414.28,1193.41h20.73v20.73h-20.73zM435.01,1193.41h20.73v20.73h-20.73zM455.74,1193.41h20.73v20.73h-20.73zM538.67,1193.41h20.73v20.73h-20.73zM600.87,1193.41h20.73v20.73h-20.73zM621.60,1193.41h20.73v20.73h-20.73zM642.33,1193.41h20.73v20.73h-20.73zM704.52,1193.41h20.73v20.73h-20.73zM745.99,1193.41h20.73v20.73h-20.73zM766.72,1193.41h20.73v20.73h-20.73zM787.45,1193.41h20.73v20.73h-20.73zM808.18,1193.41h20.73v20.73h-20.73zM828.91,1193.41h20.73v20.73h-20.73zM891.11,1193.41h20.73v20.73h-20.73zM248.43,1214.15h20.73v20.73h-20.73zM289.89,1214.15h20.73v20.73h-20.73zM310.62,1214.15h20.73v20.73h-20.73zM331.35,1214.15h20.73v20.73h-20.73zM372.82,1214.15h20.73v20.73h-20.73zM435.01,1214.15h20.73v20.73h-20.73zM476.48,1214.15h20.73v20.73h-20.73zM559.40,1214.15h20.73v20.73h-20.73zM580.13,1214.15h20.73v20.73h-20.73zM663.06,1214.15h20.73v20.73h-20.73zM704.52,1214.15h20.73v20.73h-20.73zM828.91,1214.15h20.73v20.73h-20.73zM849.65,1214.15h20.73v20.73h-20.73zM870.38,1214.15h20.73v20.73h-20.73zM248.43,1234.88h20.73v20.73h-20.73zM289.89,1234.88h20.73v20.73h-20.73zM310.62,1234.88h20.73v20.73h-20.73zM331.35,1234.88h20.73v20.73h-20.73zM372.82,1234.88h20.73v20.73h-20.73zM414.28,1234.88h20.73v20.73h-20.73zM435.01,1234.88h20.73v20.73h-20.73zM497.21,1234.88h20.73v20.73h-20.73zM517.94,1234.88h20.73v20.73h-20.73zM559.40,1234.88h20.73v20.73h-20.73zM600.87,1234.88h20.73v20.73h-20.73zM642.33,1234.88h20.73v20.73h-20.73zM704.52,1234.88h20.73v20.73h-20.73zM766.72,1234.88h20.73v20.73h-20.73zM808.18,1234.88h20.73v20.73h-20.73zM828.91,1234.88h20.73v20.73h-20.73zM849.65,1234.88h20.73v20.73h-20.73zM870.38,1234.88h20.73v20.73h-20.73zM911.84,1234.88h20.73v20.73h-20.73zM248.43,1255.61h20.73v20.73h-20.73zM372.82,1255.61h20.73v20.73h-20.73zM455.74,1255.61h20.73v20.73h-20.73zM517.94,1255.61h20.73v20.73h-20.73zM580.13,1255.61h20.73v20.73h-20.73zM621.60,1255.61h20.73v20.73h-20.73zM663.06,1255.61h20.73v20.73h-20.73zM683.79,1255.61h20.73v20.73h-20.73zM745.99,1255.61h20.73v20.73h-20.73zM787.45,1255.61h20.73v20.73h-20.73zM808.18,1255.61h20.73v20.73h-20.73zM891.11,1255.61h20.73v20.73h-20.73zM248.43,1276.34h20.73v20.73h-20.73zM269.16,1276.34h20.73v20.73h-20.73zM289.89,1276.34h20.73v20.73h-20.73zM310.62,1276.34h20.73v20.73h-20.73zM331.35,1276.34h20.73v20.73h-20.73zM352.09,1276.34h20.73v20.73h-20.73zM372.82,1276.34h20.73v20.73h-20.73zM435.01,1276.34h20.73v20.73h-20.73zM455.74,1276.34h20.73v20.73h-20.73zM497.21,1276.34h20.73v20.73h-20.73zM517.94,1276.34h20.73v20.73h-20.73zM538.67,1276.34h20.73v20.73h-20.73zM600.87,1276.34h20.73v20.73h-20.73zM663.06,1276.34h20.73v20.73h-20.73zM704.52,1276.34h20.73v20.73h-20.73zM745.99,1276.34h20.73v20.73h-20.73zM766.72,1276.34h20.73v20.73h-20.73zM787.45,1276.34h20.73v20.73h-20.73zM808.18,1276.34h20.73v20.73h-20.73zM828.91,1276.34h20.73v20.73h-20.73zM891.11,1276.34h20.73v20.73h-20.73zM911.84,1276.34h20.73v20.73h-20.73z"/>
<text x="590.5" y="1466" text-anchor="middle" fill="#293b2d" font-family="Arial,sans-serif" font-size="39" font-weight="700">Откройте меню Wasabi.26</text>
<text x="590.5" y="1522" text-anchor="middle" fill="#77796d" font-family="Arial,sans-serif" font-size="30">Роллы · пицца · фастфуд · чуду</text>
<text x="590.5" y="1575" text-anchor="middle" fill="#49613c" font-family="Arial,sans-serif" font-size="25">islam122344.github.io</text>
</svg>